<mxfile host="app.diagrams.net" modified="2023-09-25T08:33:25.776Z" agent="Mozilla/5.0 (Windows NT 10.0; Win64; x64) AppleWebKit/537.36 (KHTML, like Gecko) Chrome/116.0.0.0 Safari/537.36" etag="BO1iOvOY9FezKBGxX7tf" version="21.7.5" type="github">
  <diagram id="C5RBs43oDa-KdzZeNtuy" name="Page-1">
    <mxGraphModel dx="794" dy="471" grid="1" gridSize="10" guides="1" tooltips="1" connect="1" arrows="1" fold="1" page="1" pageScale="1" pageWidth="827" pageHeight="1169" math="0" shadow="0">
      <root>
        <mxCell id="WIyWlLk6GJQsqaUBKTNV-0" />
        <mxCell id="WIyWlLk6GJQsqaUBKTNV-1" parent="WIyWlLk6GJQsqaUBKTNV-0" />
        <mxCell id="C4yKu6d96TQ9oOMbCk4U-14" style="edgeStyle=orthogonalEdgeStyle;rounded=0;orthogonalLoop=1;jettySize=auto;html=1;exitX=0.5;exitY=1;exitDx=0;exitDy=0;" edge="1" parent="WIyWlLk6GJQsqaUBKTNV-1" source="C4yKu6d96TQ9oOMbCk4U-0" target="C4yKu6d96TQ9oOMbCk4U-2">
          <mxGeometry relative="1" as="geometry" />
        </mxCell>
        <mxCell id="C4yKu6d96TQ9oOMbCk4U-0" value="SFCC" style="rounded=0;whiteSpace=wrap;html=1;" vertex="1" parent="WIyWlLk6GJQsqaUBKTNV-1">
          <mxGeometry x="500" y="100" width="120" height="60" as="geometry" />
        </mxCell>
        <mxCell id="C4yKu6d96TQ9oOMbCk4U-18" style="edgeStyle=orthogonalEdgeStyle;rounded=0;orthogonalLoop=1;jettySize=auto;html=1;exitX=1;exitY=0.5;exitDx=0;exitDy=0;" edge="1" parent="WIyWlLk6GJQsqaUBKTNV-1" source="C4yKu6d96TQ9oOMbCk4U-2" target="C4yKu6d96TQ9oOMbCk4U-17">
          <mxGeometry relative="1" as="geometry" />
        </mxCell>
        <mxCell id="C4yKu6d96TQ9oOMbCk4U-19" style="edgeStyle=orthogonalEdgeStyle;rounded=0;orthogonalLoop=1;jettySize=auto;html=1;exitX=0;exitY=0.5;exitDx=0;exitDy=0;" edge="1" parent="WIyWlLk6GJQsqaUBKTNV-1" source="C4yKu6d96TQ9oOMbCk4U-2" target="C4yKu6d96TQ9oOMbCk4U-16">
          <mxGeometry relative="1" as="geometry" />
        </mxCell>
        <mxCell id="C4yKu6d96TQ9oOMbCk4U-2" value="Increff" style="rounded=0;whiteSpace=wrap;html=1;" vertex="1" parent="WIyWlLk6GJQsqaUBKTNV-1">
          <mxGeometry x="500" y="240" width="120" height="60" as="geometry" />
        </mxCell>
        <mxCell id="C4yKu6d96TQ9oOMbCk4U-12" style="edgeStyle=orthogonalEdgeStyle;rounded=0;orthogonalLoop=1;jettySize=auto;html=1;entryX=0;entryY=0.5;entryDx=0;entryDy=0;" edge="1" parent="WIyWlLk6GJQsqaUBKTNV-1" source="C4yKu6d96TQ9oOMbCk4U-3" target="C4yKu6d96TQ9oOMbCk4U-0">
          <mxGeometry relative="1" as="geometry" />
        </mxCell>
        <mxCell id="C4yKu6d96TQ9oOMbCk4U-27" style="edgeStyle=orthogonalEdgeStyle;rounded=0;orthogonalLoop=1;jettySize=auto;html=1;exitX=0.25;exitY=1;exitDx=0;exitDy=0;entryX=0.5;entryY=0.5;entryDx=0;entryDy=0;entryPerimeter=0;" edge="1" parent="WIyWlLk6GJQsqaUBKTNV-1" source="C4yKu6d96TQ9oOMbCk4U-3" target="C4yKu6d96TQ9oOMbCk4U-26">
          <mxGeometry relative="1" as="geometry">
            <Array as="points">
              <mxPoint x="270" y="350" />
            </Array>
          </mxGeometry>
        </mxCell>
        <mxCell id="C4yKu6d96TQ9oOMbCk4U-3" value="Clickpost" style="rounded=0;whiteSpace=wrap;html=1;" vertex="1" parent="WIyWlLk6GJQsqaUBKTNV-1">
          <mxGeometry x="240" y="100" width="120" height="60" as="geometry" />
        </mxCell>
        <mxCell id="C4yKu6d96TQ9oOMbCk4U-10" style="edgeStyle=orthogonalEdgeStyle;rounded=0;orthogonalLoop=1;jettySize=auto;html=1;entryX=0;entryY=0.5;entryDx=0;entryDy=0;" edge="1" parent="WIyWlLk6GJQsqaUBKTNV-1" source="C4yKu6d96TQ9oOMbCk4U-6" target="C4yKu6d96TQ9oOMbCk4U-3">
          <mxGeometry relative="1" as="geometry" />
        </mxCell>
        <mxCell id="C4yKu6d96TQ9oOMbCk4U-6" value="Customer" style="shape=umlActor;verticalLabelPosition=bottom;verticalAlign=top;html=1;outlineConnect=0;" vertex="1" parent="WIyWlLk6GJQsqaUBKTNV-1">
          <mxGeometry x="50" y="100" width="30" height="60" as="geometry" />
        </mxCell>
        <mxCell id="C4yKu6d96TQ9oOMbCk4U-11" value="Requests for exchange" style="text;html=1;align=center;verticalAlign=middle;resizable=0;points=[];autosize=1;strokeColor=none;fillColor=none;" vertex="1" parent="WIyWlLk6GJQsqaUBKTNV-1">
          <mxGeometry x="80" y="100" width="150" height="30" as="geometry" />
        </mxCell>
        <mxCell id="C4yKu6d96TQ9oOMbCk4U-13" value="Place an exchange&lt;br&gt;order with exchange flag" style="text;html=1;align=center;verticalAlign=middle;resizable=0;points=[];autosize=1;strokeColor=none;fillColor=none;" vertex="1" parent="WIyWlLk6GJQsqaUBKTNV-1">
          <mxGeometry x="355" y="90" width="150" height="40" as="geometry" />
        </mxCell>
        <mxCell id="C4yKu6d96TQ9oOMbCk4U-15" value="Share order details&lt;br&gt;with exchange flag" style="text;html=1;align=center;verticalAlign=middle;resizable=0;points=[];autosize=1;strokeColor=none;fillColor=none;" vertex="1" parent="WIyWlLk6GJQsqaUBKTNV-1">
          <mxGeometry x="560" y="180" width="120" height="40" as="geometry" />
        </mxCell>
        <mxCell id="C4yKu6d96TQ9oOMbCk4U-22" style="edgeStyle=orthogonalEdgeStyle;rounded=0;orthogonalLoop=1;jettySize=auto;html=1;exitX=0;exitY=0.5;exitDx=0;exitDy=0;" edge="1" parent="WIyWlLk6GJQsqaUBKTNV-1" source="C4yKu6d96TQ9oOMbCk4U-16" target="C4yKu6d96TQ9oOMbCk4U-21">
          <mxGeometry relative="1" as="geometry" />
        </mxCell>
        <mxCell id="C4yKu6d96TQ9oOMbCk4U-16" value="WMS" style="rounded=0;whiteSpace=wrap;html=1;" vertex="1" parent="WIyWlLk6GJQsqaUBKTNV-1">
          <mxGeometry x="420" y="320" width="120" height="60" as="geometry" />
        </mxCell>
        <mxCell id="C4yKu6d96TQ9oOMbCk4U-17" value="OMS" style="rounded=0;whiteSpace=wrap;html=1;" vertex="1" parent="WIyWlLk6GJQsqaUBKTNV-1">
          <mxGeometry x="580" y="320" width="120" height="60" as="geometry" />
        </mxCell>
        <mxCell id="C4yKu6d96TQ9oOMbCk4U-24" style="edgeStyle=orthogonalEdgeStyle;rounded=0;orthogonalLoop=1;jettySize=auto;html=1;entryX=0.75;entryY=1;entryDx=0;entryDy=0;exitX=0.5;exitY=0.5;exitDx=0;exitDy=0;exitPerimeter=0;" edge="1" parent="WIyWlLk6GJQsqaUBKTNV-1" source="C4yKu6d96TQ9oOMbCk4U-21" target="C4yKu6d96TQ9oOMbCk4U-3">
          <mxGeometry relative="1" as="geometry">
            <Array as="points">
              <mxPoint x="330" y="350" />
            </Array>
          </mxGeometry>
        </mxCell>
        <mxCell id="C4yKu6d96TQ9oOMbCk4U-21" value="Warehouse" style="shape=umlActor;verticalLabelPosition=bottom;verticalAlign=top;html=1;outlineConnect=0;" vertex="1" parent="WIyWlLk6GJQsqaUBKTNV-1">
          <mxGeometry x="350" y="320" width="30" height="60" as="geometry" />
        </mxCell>
        <mxCell id="C4yKu6d96TQ9oOMbCk4U-25" value="Creates a&lt;br&gt;shipment" style="text;html=1;align=center;verticalAlign=middle;resizable=0;points=[];autosize=1;strokeColor=none;fillColor=none;" vertex="1" parent="WIyWlLk6GJQsqaUBKTNV-1">
          <mxGeometry x="330" y="235" width="80" height="40" as="geometry" />
        </mxCell>
        <mxCell id="C4yKu6d96TQ9oOMbCk4U-29" style="edgeStyle=orthogonalEdgeStyle;rounded=0;orthogonalLoop=1;jettySize=auto;html=1;exitX=0.5;exitY=0.5;exitDx=0;exitDy=0;exitPerimeter=0;entryX=0.5;entryY=0.5;entryDx=0;entryDy=0;entryPerimeter=0;" edge="1" parent="WIyWlLk6GJQsqaUBKTNV-1" source="C4yKu6d96TQ9oOMbCk4U-26" target="C4yKu6d96TQ9oOMbCk4U-6">
          <mxGeometry relative="1" as="geometry">
            <Array as="points">
              <mxPoint x="20" y="350" />
              <mxPoint x="20" y="130" />
            </Array>
          </mxGeometry>
        </mxCell>
        <mxCell id="C4yKu6d96TQ9oOMbCk4U-26" value="Delivery Partner" style="shape=umlActor;verticalLabelPosition=bottom;verticalAlign=top;html=1;outlineConnect=0;" vertex="1" parent="WIyWlLk6GJQsqaUBKTNV-1">
          <mxGeometry x="140" y="320" width="30" height="60" as="geometry" />
        </mxCell>
        <mxCell id="C4yKu6d96TQ9oOMbCk4U-28" value="Assign delivery&lt;br&gt;partner" style="text;html=1;align=center;verticalAlign=middle;resizable=0;points=[];autosize=1;strokeColor=none;fillColor=none;" vertex="1" parent="WIyWlLk6GJQsqaUBKTNV-1">
          <mxGeometry x="170" y="235" width="100" height="40" as="geometry" />
        </mxCell>
        <mxCell id="C4yKu6d96TQ9oOMbCk4U-30" value="Delivers" style="text;html=1;align=center;verticalAlign=middle;resizable=0;points=[];autosize=1;strokeColor=none;fillColor=none;" vertex="1" parent="WIyWlLk6GJQsqaUBKTNV-1">
          <mxGeometry x="20" y="240" width="70" height="30" as="geometry" />
        </mxCell>
      </root>
    </mxGraphModel>
  </diagram>
</mxfile>
